// this file was generated from 3plpsqrmidresnoise.exs using vonred's exs2sfz.py. Trickster goddess incoming.

<group>lokey=0 hikey=26 pitch_keycenter=24 pitch_keytrack=1
	<region> lovel=001 hivel=021 amp_velcurve_021=1 offset=334 end=670954 sample=../Sounds/Squares/3plpsqrmidresnoise/xp2016D0-21-HPQA.aif
	<region> lovel=022 hivel=042 amp_velcurve_042=1 offset=409 end=671321 sample=../Sounds/Squares/3plpsqrmidresnoise/xp2016D0-42-60H8.aif
	<region> lovel=043 hivel=064 amp_velcurve_064=1 offset=482 end=671181 sample=../Sounds/Squares/3plpsqrmidresnoise/xp2016D0-64-DQIF.aif
	<region> lovel=065 hivel=085 amp_velcurve_085=1 offset=431 end=665589 sample=../Sounds/Squares/3plpsqrmidresnoise/xp2016D0-85-BRIH.aif
	<region> lovel=086 hivel=106 amp_velcurve_106=1 offset=498 sample=../Sounds/Squares/3plpsqrmidresnoise/xp2016D0-106-QDD4.aif
	<region> lovel=107 hivel=127 amp_velcurve_127=1 offset=530 end=668086 sample=../Sounds/Squares/3plpsqrmidresnoise/xp2016D0-127-TKOC.aif
<group>lokey=27 hikey=32 pitch_keycenter=30 pitch_keytrack=1
	<region> lovel=001 hivel=021 amp_velcurve_021=1 offset=575 end=664545 sample=../Sounds/Squares/3plpsqrmidresnoise/xp2016G#0-21-HQRI.aif
	<region> lovel=022 hivel=042 amp_velcurve_042=1 offset=504 end=665814 sample=../Sounds/Squares/3plpsqrmidresnoise/xp2016G#0-42-BAHH.aif
	<region> lovel=043 hivel=064 amp_velcurve_064=1 offset=504 end=666092 sample=../Sounds/Squares/3plpsqrmidresnoise/xp2016G#0-64-L1WU.aif
	<region> lovel=065 hivel=085 amp_velcurve_085=1 offset=465 end=666238 sample=../Sounds/Squares/3plpsqrmidresnoise/xp2016G#0-85-AS7X.aif
	<region> lovel=086 hivel=106 amp_velcurve_106=1 offset=402 end=665465 sample=../Sounds/Squares/3plpsqrmidresnoise/xp2016G#0-106-JX8G.aif
	<region> lovel=107 hivel=127 amp_velcurve_127=1 offset=510 end=664938 sample=../Sounds/Squares/3plpsqrmidresnoise/xp2016G#0-127-2F7S.aif
<group>lokey=33 hikey=38 pitch_keycenter=36 pitch_keytrack=1
	<region> lovel=001 hivel=021 amp_velcurve_021=1 offset=418 sample=../Sounds/Squares/3plpsqrmidresnoise/xp2016D1-21-Q7BT.aif
	<region> lovel=022 hivel=042 amp_velcurve_042=1 offset=618 sample=../Sounds/Squares/3plpsqrmidresnoise/xp2016D1-42-923J.aif
	<region> lovel=043 hivel=064 amp_velcurve_064=1 offset=590 end=670929 sample=../Sounds/Squares/3plpsqrmidresnoise/xp2016D1-64-AHTM.aif
	<region> lovel=065 hivel=085 amp_velcurve_085=1 offset=506 end=665299 sample=../Sounds/Squares/3plpsqrmidresnoise/xp2016D1-85-0P3G.aif
	<region> lovel=086 hivel=106 amp_velcurve_106=1 offset=652 end=666027 sample=../Sounds/Squares/3plpsqrmidresnoise/xp2016D1-106-JLYC.aif
	<region> lovel=107 hivel=127 amp_velcurve_127=1 offset=435 sample=../Sounds/Squares/3plpsqrmidresnoise/xp2016D1-127-M8LL.aif
<group>lokey=39 hikey=44 pitch_keycenter=42 pitch_keytrack=1
	<region> lovel=001 hivel=021 amp_velcurve_021=1 offset=572 end=665845 sample=../Sounds/Squares/3plpsqrmidresnoise/xp2016G#1-21-G9QN.aif
	<region> lovel=022 hivel=042 amp_velcurve_042=1 offset=635 sample=../Sounds/Squares/3plpsqrmidresnoise/xp2016G#1-42-N7YS.aif
	<region> lovel=043 hivel=064 amp_velcurve_064=1 offset=500 sample=../Sounds/Squares/3plpsqrmidresnoise/xp2016G#1-64-OAGE.aif
	<region> lovel=065 hivel=085 amp_velcurve_085=1 offset=516 end=664822 sample=../Sounds/Squares/3plpsqrmidresnoise/xp2016G#1-85-N1O0.aif
	<region> lovel=086 hivel=106 amp_velcurve_106=1 offset=427 end=665256 sample=../Sounds/Squares/3plpsqrmidresnoise/xp2016G#1-106-V43S.aif
	<region> lovel=107 hivel=127 amp_velcurve_127=1 offset=475 sample=../Sounds/Squares/3plpsqrmidresnoise/xp2016G#1-127-NZRQ.aif
<group>lokey=45 hikey=50 pitch_keycenter=48 pitch_keytrack=1
	<region> lovel=001 hivel=021 amp_velcurve_021=1 offset=421 sample=../Sounds/Squares/3plpsqrmidresnoise/xp2016D2-21-8EPP.aif
	<region> lovel=022 hivel=042 amp_velcurve_042=1 offset=556 end=665444 sample=../Sounds/Squares/3plpsqrmidresnoise/xp2016D2-42-ZH4E.aif
	<region> lovel=043 hivel=064 amp_velcurve_064=1 offset=553 sample=../Sounds/Squares/3plpsqrmidresnoise/xp2016D2-64-HDBQ.aif
	<region> lovel=065 hivel=085 amp_velcurve_085=1 offset=531 end=665321 sample=../Sounds/Squares/3plpsqrmidresnoise/xp2016D2-85-EGAH.aif
	<region> lovel=086 hivel=106 amp_velcurve_106=1 offset=413 end=665966 sample=../Sounds/Squares/3plpsqrmidresnoise/xp2016D2-106-0YZE.aif
	<region> lovel=107 hivel=127 amp_velcurve_127=1 offset=424 end=666207 sample=../Sounds/Squares/3plpsqrmidresnoise/xp2016D2-127-5344.aif
<group>lokey=51 hikey=56 pitch_keycenter=54 pitch_keytrack=1
	<region> lovel=001 hivel=021 amp_velcurve_021=1 offset=404 end=664917 sample=../Sounds/Squares/3plpsqrmidresnoise/xp2016G#2-21-PNKO.aif
	<region> lovel=022 hivel=042 amp_velcurve_042=1 offset=419 sample=../Sounds/Squares/3plpsqrmidresnoise/xp2016G#2-42-0NS4.aif
	<region> lovel=043 hivel=064 amp_velcurve_064=1 offset=324 sample=../Sounds/Squares/3plpsqrmidresnoise/xp2016G#2-64-Q19C.aif
	<region> lovel=065 hivel=085 amp_velcurve_085=1 offset=519 end=664444 sample=../Sounds/Squares/3plpsqrmidresnoise/xp2016G#2-85-QH0P.aif
	<region> lovel=086 hivel=106 amp_velcurve_106=1 offset=448 end=664829 sample=../Sounds/Squares/3plpsqrmidresnoise/xp2016G#2-106-3FSG.aif
	<region> lovel=107 hivel=127 amp_velcurve_127=1 offset=563 end=664670 sample=../Sounds/Squares/3plpsqrmidresnoise/xp2016G#2-127-VT1N.aif
<group>lokey=57 hikey=62 pitch_keycenter=60 pitch_keytrack=1
	<region> lovel=001 hivel=021 amp_velcurve_021=1 offset=619 end=664046 sample=../Sounds/Squares/3plpsqrmidresnoise/xp2016D3-21-S2CO.aif
	<region> lovel=022 hivel=042 amp_velcurve_042=1 offset=557 end=665194 sample=../Sounds/Squares/3plpsqrmidresnoise/xp2016D3-42-H9U1.aif
	<region> lovel=043 hivel=064 amp_velcurve_064=1 offset=440 end=664953 sample=../Sounds/Squares/3plpsqrmidresnoise/xp2016D3-64-OKHM.aif
	<region> lovel=065 hivel=085 amp_velcurve_085=1 offset=509 end=666103 sample=../Sounds/Squares/3plpsqrmidresnoise/xp2016D3-85-EXNV.aif
	<region> lovel=086 hivel=106 amp_velcurve_106=1 offset=496 end=663922 sample=../Sounds/Squares/3plpsqrmidresnoise/xp2016D3-106-B4E7.aif
	<region> lovel=107 hivel=127 amp_velcurve_127=1 offset=410 end=664866 sample=../Sounds/Squares/3plpsqrmidresnoise/xp2016D3-127-FC0V.aif
<group>lokey=63 hikey=68 pitch_keycenter=66 pitch_keytrack=1
	<region> lovel=001 hivel=021 amp_velcurve_021=1 offset=439 end=663034 sample=../Sounds/Squares/3plpsqrmidresnoise/xp2016G#3-21-VOMQ.aif
	<region> lovel=022 hivel=042 amp_velcurve_042=1 offset=453 end=665339 sample=../Sounds/Squares/3plpsqrmidresnoise/xp2016G#3-42-YXLG.aif
	<region> lovel=043 hivel=064 amp_velcurve_064=1 offset=447 sample=../Sounds/Squares/3plpsqrmidresnoise/xp2016G#3-64-AQ2R.aif
	<region> lovel=065 hivel=085 amp_velcurve_085=1 offset=451 end=664312 sample=../Sounds/Squares/3plpsqrmidresnoise/xp2016G#3-85-86SN.aif
	<region> lovel=086 hivel=106 amp_velcurve_106=1 offset=523 sample=../Sounds/Squares/3plpsqrmidresnoise/xp2016G#3-106-IWJI.aif
	<region> lovel=107 hivel=127 amp_velcurve_127=1 offset=456 end=664162 sample=../Sounds/Squares/3plpsqrmidresnoise/xp2016G#3-127-GUD4.aif
<group>lokey=69 hikey=74 pitch_keycenter=72 pitch_keytrack=1
	<region> lovel=001 hivel=021 amp_velcurve_021=1 offset=621 end=662314 sample=../Sounds/Squares/3plpsqrmidresnoise/xp2016D4-21-RFR9.aif
	<region> lovel=022 hivel=042 amp_velcurve_042=1 offset=622 end=662911 sample=../Sounds/Squares/3plpsqrmidresnoise/xp2016D4-42-QKKY.aif
	<region> lovel=043 hivel=064 amp_velcurve_064=1 offset=543 end=663837 sample=../Sounds/Squares/3plpsqrmidresnoise/xp2016D4-64-CD5I.aif
	<region> lovel=065 hivel=085 amp_velcurve_085=1 offset=369 end=663275 sample=../Sounds/Squares/3plpsqrmidresnoise/xp2016D4-85-5B3U.aif
	<region> lovel=086 hivel=106 amp_velcurve_106=1 offset=393 sample=../Sounds/Squares/3plpsqrmidresnoise/xp2016D4-106-1UKZ.aif
	<region> lovel=107 hivel=127 amp_velcurve_127=1 offset=614 sample=../Sounds/Squares/3plpsqrmidresnoise/xp2016D4-127-2212.aif
<group>lokey=75 hikey=80 pitch_keycenter=78 pitch_keytrack=1
	<region> lovel=001 hivel=021 amp_velcurve_021=1 offset=471 end=663621 sample=../Sounds/Squares/3plpsqrmidresnoise/xp2016G#4-21-5132.aif
	<region> lovel=022 hivel=042 amp_velcurve_042=1 offset=505 end=662776 sample=../Sounds/Squares/3plpsqrmidresnoise/xp2016G#4-42-TBHB.aif
	<region> lovel=043 hivel=064 amp_velcurve_064=1 offset=578 sample=../Sounds/Squares/3plpsqrmidresnoise/xp2016G#4-64-WSZA.aif
	<region> lovel=065 hivel=085 amp_velcurve_085=1 offset=569 sample=../Sounds/Squares/3plpsqrmidresnoise/xp2016G#4-85-15J8.aif
	<region> lovel=086 hivel=106 amp_velcurve_106=1 offset=319 end=662780 sample=../Sounds/Squares/3plpsqrmidresnoise/xp2016G#4-106-VP01.aif
	<region> lovel=107 hivel=127 amp_velcurve_127=1 offset=463 sample=../Sounds/Squares/3plpsqrmidresnoise/xp2016G#4-127-54BS.aif
<group>lokey=81 hikey=86 pitch_keycenter=84 pitch_keytrack=1
	<region> lovel=001 hivel=021 amp_velcurve_021=1 offset=486 end=663154 sample=../Sounds/Squares/3plpsqrmidresnoise/xp2016D5-21-8BCK.aif
	<region> lovel=022 hivel=042 amp_velcurve_042=1 offset=398 sample=../Sounds/Squares/3plpsqrmidresnoise/xp2016D5-42-2EJL.aif
	<region> lovel=043 hivel=064 amp_velcurve_064=1 offset=614 sample=../Sounds/Squares/3plpsqrmidresnoise/xp2016D5-64-DZX0.aif
	<region> lovel=065 hivel=085 amp_velcurve_085=1 offset=567 end=663279 sample=../Sounds/Squares/3plpsqrmidresnoise/xp2016D5-85-RGSB.aif
	<region> lovel=086 hivel=106 amp_velcurve_106=1 offset=544 sample=../Sounds/Squares/3plpsqrmidresnoise/xp2016D5-106-EB26.aif
	<region> lovel=107 hivel=127 amp_velcurve_127=1 offset=480 end=663598 sample=../Sounds/Squares/3plpsqrmidresnoise/xp2016D5-127-5TVM.aif
<group>lokey=87 hikey=92 pitch_keycenter=90 pitch_keytrack=1
	<region> lovel=001 hivel=021 amp_velcurve_021=1 offset=499 end=662308 sample=../Sounds/Squares/3plpsqrmidresnoise/xp2016G#5-21-3IFR.aif
	<region> lovel=022 hivel=042 amp_velcurve_042=1 offset=501 sample=../Sounds/Squares/3plpsqrmidresnoise/xp2016G#5-42-6YK1.aif
	<region> lovel=043 hivel=064 amp_velcurve_064=1 offset=438 end=663394 sample=../Sounds/Squares/3plpsqrmidresnoise/xp2016G#5-64-C1NV.aif
	<region> lovel=065 hivel=085 amp_velcurve_085=1 offset=471 end=663932 sample=../Sounds/Squares/3plpsqrmidresnoise/xp2016G#5-85-T2JN.aif
	<region> lovel=086 hivel=106 amp_velcurve_106=1 offset=512 end=662716 sample=../Sounds/Squares/3plpsqrmidresnoise/xp2016G#5-106-IQQ0.aif
	<region> lovel=107 hivel=127 amp_velcurve_127=1 offset=606 end=663581 sample=../Sounds/Squares/3plpsqrmidresnoise/xp2016G#5-127-QD1W.aif
<group>lokey=93 hikey=127 pitch_keycenter=96 pitch_keytrack=1
	<region> lovel=001 hivel=021 amp_velcurve_021=1 offset=543 sample=../Sounds/Squares/3plpsqrmidresnoise/xp2016G8-21-PPRR.aif
	<region> lovel=022 hivel=042 amp_velcurve_042=1 offset=449 end=663411 sample=../Sounds/Squares/3plpsqrmidresnoise/xp2016G8-42-DJXR.aif
	<region> lovel=043 hivel=064 amp_velcurve_064=1 offset=341 end=663027 sample=../Sounds/Squares/3plpsqrmidresnoise/xp2016G8-64-PQQV.aif
	<region> lovel=065 hivel=085 amp_velcurve_085=1 offset=353 end=663536 sample=../Sounds/Squares/3plpsqrmidresnoise/xp2016G8-85-DK41.aif
	<region> lovel=086 hivel=106 amp_velcurve_106=1 offset=539 end=662900 sample=../Sounds/Squares/3plpsqrmidresnoise/xp2016G8-106-IRSC.aif
	<region> lovel=107 hivel=127 amp_velcurve_127=1 offset=363 end=663634 sample=../Sounds/Squares/3plpsqrmidresnoise/xp2016G8-127-0KXE.aif
